<?xml version="1.0" encoding="UTF-8" standalone="no"?>
<!-- Created with Inkscape (http://www.inkscape.org/) -->

<svg
   width="38.708328mm"
   height="25.583328mm"
   viewBox="0 0 38.708328 25.583328"
   version="1.1"
   id="svg1"
   inkscape:export-filename="pine-tree.png"
   inkscape:export-xdpi="96"
   inkscape:export-ydpi="96"
   xml:space="preserve"
   xmlns:inkscape="http://www.inkscape.org/namespaces/inkscape"
   xmlns:sodipodi="http://sodipodi.sourceforge.net/DTD/sodipodi-0.dtd"
   xmlns="http://www.w3.org/2000/svg"
   xmlns:svg="http://www.w3.org/2000/svg"><sodipodi:namedview
     id="namedview1"
     pagecolor="#ffffff"
     bordercolor="#000000"
     borderopacity="0.25"
     inkscape:showpageshadow="2"
     inkscape:pageopacity="0.0"
     inkscape:pagecheckerboard="0"
     inkscape:deskcolor="#d1d1d1"
     inkscape:document-units="mm"
     showgrid="false" /><defs
     id="defs1" /><g
     inkscape:label="Capa 1"
     inkscape:groupmode="layer"
     id="layer1"
     transform="translate(-79.95833,-86.416662)"><path
       style="opacity:1;fill:#311c0d;fill-opacity:1;stroke:none;stroke-width:2.5;stroke-dasharray:none;stroke-opacity:1;paint-order:stroke markers fill"
       d="m 87.209835,100.23239 1.355289,0.50086 -0.07366,-10.40036 5.509541,-0.05893 0.01474,3.653385 0.589256,0.869154 0.928077,0.7513 1.090123,0.618718 0.987004,0.309359 1.134316,0.191508 1.988739,0.01474 1.59099,-0.383016 1.06066,-0.515599 0.7071,-0.456674 0.75131,-0.736568 0.26516,-0.500867 0.25611,-0.568563 0.0104,-3.156251 5.58334,-0.01042 V 100.6875 l 1.27083,-0.770836 -0.0833,-10.458333 -8.1875,0.02082 -0.0625,4.125 -0.29167,0.708332 -0.47917,0.416668 -0.85417,0.499999 -0.85416,0.395833 -0.66667,0.125 -0.895829,0.02082 -1.166667,-0.02082 -0.937501,-0.25 -0.625001,-0.291666 -0.624999,-0.458332 -0.687498,-0.500002 -0.312502,-0.583332 v -4.312499 l -8.208333,0.04167 z"
       id="path5" /><path
       style="opacity:1;fill:#311c0d;fill-opacity:1;stroke:none;stroke-width:2.5;stroke-dasharray:none;stroke-opacity:1;paint-order:stroke markers fill"
       d="m 93.956813,96.785241 0.02946,1.885617 4.065807,1.277059 -3.979167,1.229163 0.0019,1.85427 h 1.090123 l 0.01474,-1.19324 4.242638,-1.41422 4.375226,1.32583 v 1.23744 l 1.56153,0.0147 v -1.59099 l -4.05113,-1.38475 3.9922,-1.370017 0.0147,-1.944541 -1.31109,0.01474 -0.0295,1.193244 -4.242636,1.502601 -4.257374,-1.370018 -0.04419,-1.311095 z"
       id="path6" /><path
       style="opacity:1;fill:#64381b;fill-opacity:1;stroke:none;stroke-width:2.5;stroke-dasharray:none;stroke-opacity:1;paint-order:stroke markers fill"
       d="m 90.480204,92.807765 0.147315,8.190655 1.17851,0.50087 -0.05893,-8.367434 z"
       id="path7" /><path
       style="opacity:1;fill:#64381b;fill-opacity:1;stroke:none;stroke-width:2.5;stroke-dasharray:none;stroke-opacity:1;paint-order:stroke markers fill"
       d="m 107.50969,93.397019 -0.0589,8.102271 1.29636,-0.58926 v -8.16119 z"
       id="path8" /><path
       style="opacity:1;fill:#64381b;fill-opacity:1;stroke:none;stroke-width:2.5;stroke-dasharray:none;stroke-opacity:1;paint-order:stroke markers fill"
       d="m 86.915209,105.53569 1.885616,1.20797 -1.090123,0.44194 -1.826691,-1.14905 z"
       id="path9" /><path
       style="opacity:1;fill:#64381b;fill-opacity:1;stroke:none;stroke-width:2.5;stroke-dasharray:none;stroke-opacity:1;paint-order:stroke markers fill"
       d="m 89.537396,106.50796 1.620451,1.17851 1.119587,-0.50087 -1.649915,-1.06066 z"
       id="path10" /><path
       style="opacity:1;fill:#64381b;fill-opacity:1;stroke:none;stroke-width:2.5;stroke-dasharray:none;stroke-opacity:1;paint-order:stroke markers fill"
       d="m 107.12668,107.12668 0.85442,0.58925 2.00347,-1.2669 -1.32583,-0.32409 z"
       id="path11" /><path
       style="opacity:1;fill:#64381b;fill-opacity:1;stroke:none;stroke-width:2.5;stroke-dasharray:none;stroke-opacity:1;paint-order:stroke markers fill"
       d="m 110.54436,106.62581 1.11958,0.53033 1.56153,-1.11959 -1.00173,-0.35355 z"
       id="path12" /><path
       style="opacity:1;fill:none;fill-opacity:1;stroke:#009a00;stroke-width:1;stroke-dasharray:none;stroke-opacity:1;paint-order:stroke markers fill"
       d="m 96.208333,108.08333 v 0.625 l 0.541665,0.54167 0.666668,0.4375 4.635414,-0.0312 0.65625,-0.4375 0.47917,-0.67708 -0.0104,-0.5625 -0.36458,-0.51042 -0.72917,-0.4375 -4.635412,-0.0208 -0.531251,0.23958 z"
       id="path13" /><path
       style="opacity:1;fill:#009a00;fill-opacity:1;stroke:none;stroke-width:1;stroke-dasharray:none;stroke-opacity:1;paint-order:stroke markers fill"
       d="m 94.864583,108.05208 -1.177084,0.0208 0.03125,-0.54167 0.21875,-0.57292 0.447916,-0.48958 0.656251,-0.57292 1.000001,-0.52083 0.677081,-0.1875 5.541662,-0.0625 0.83334,0.17708 0.91667,0.45833 0.69791,0.51042 0.48959,0.46875 0.25,0.4375 0.0521,0.67709 -1.0625,0.0417 v -0.65625 l -0.30208,-0.34375 -0.69792,-0.48958 -0.91667,-0.38542 -5.427082,-0.0833 -0.770832,0.33333 -0.614585,0.4375 -0.385416,0.44792 -0.239583,0.51041 -0.02082,0.38542 z"
       id="path14" /><path
       style="opacity:1;fill:#009a00;fill-opacity:1;stroke:none;stroke-width:1;stroke-dasharray:none;stroke-opacity:1;paint-order:stroke markers fill"
       d="m 99.031249,102.08333 -0.04167,1.94792 0.479165,0.39583 0.385419,0.0104 0.500007,-0.40625 0.0104,-1.85417 -0.35417,-0.29167 h -0.541668 z"
       id="path15" /><path
       style="opacity:1;fill:#009a00;fill-opacity:1;stroke:none;stroke-width:1;stroke-dasharray:none;stroke-opacity:1;paint-order:stroke markers fill"
       d="m 102.53125,93.177084 -0.0104,0.427082 -0.46876,0.489582 -0.68749,0.458336 -0.64584,0.249999 -1.947915,0.03125 -0.729168,-0.364583 -0.645832,-0.541668 -0.333335,-0.437499 -0.135417,-2.906249 0.145834,-0.177086 0.250002,-0.08333 -0.01042,-0.427083 -0.114583,-0.03125 -0.239586,-0.01042 -0.197916,0.104166 -0.177083,0.21875 -0.372615,-0.492374 0.486135,-0.486135 1.031197,-0.766032 1.502601,-0.471405 1.090121,-0.162044 0.76603,0.20624 0.42721,0.309358 0.16205,0.500867 -0.76604,0.176776 -0.48613,0.427212 -0.35356,0.471403 -0.162036,0.279898 0.103116,0.368284 0.38301,0.397748 -0.603976,0.618717 -0.41248,-0.368284 -0.250434,-0.500867 0.103119,-0.456673 0.20624,-0.766032 0.486137,-0.515599 0.412474,-0.324091 -0.13258,-0.162044 -1.104854,0.235701 -0.736568,0.368285 -0.294627,0.574524 -0.147315,0.913347 -0.07366,0.928076 0.07366,1.590992 0.618718,0.736569 0.95754,0.250433 0.692366,-0.04419 0.53033,-0.265166 0.3241,-0.191508 0.0295,-0.441941 z"
       id="path16" /><path
       style="opacity:1;fill:#004f00;fill-opacity:1;stroke:none;stroke-width:1;stroke-dasharray:none;stroke-opacity:1;paint-order:stroke markers fill"
       d="m 99.377964,92.24797 h 1.355286 l 0.58926,-0.972269 0.14731,-1.414214 0.91335,-1.001737 2.09185,-0.942808 0.26517,0.618718 -1.88562,0.736571 -0.64818,0.854419 -0.26516,1.207976 -1.09013,1.5026 -1.473136,-0.05893 z"
       id="path17" /><path
       style="opacity:1;fill:#ed0018;fill-opacity:1;stroke:none;stroke-width:1;stroke-dasharray:none;stroke-opacity:1;paint-order:stroke markers fill"
       d="m 104.54868,88.093718 0.5156,-0.243067 0.0589,0.162047 -0.52297,0.213603 -0.0442,-0.09575 z"
       id="path18" /><rect
       style="opacity:1;fill:#edd100;fill-opacity:1;stroke:none;stroke-width:1;stroke-dasharray:none;stroke-opacity:1;paint-order:stroke markers fill"
       id="rect19"
       width="0.19270833"
       height="0.40625"
       x="99.161461"
       y="92.302086" /><rect
       style="opacity:1;fill:#cdb500;fill-opacity:1;stroke:none;stroke-width:1;stroke-dasharray:none;stroke-opacity:1;paint-order:stroke markers fill"
       id="rect20"
       width="0.140625"
       height="0.33854166"
       x="99.03125"
       y="92.328125" /><rect
       style="opacity:1;fill:#9a8800;fill-opacity:1;stroke:none;stroke-width:1;stroke-dasharray:none;stroke-opacity:1;paint-order:stroke markers fill"
       id="rect21"
       width="0.171875"
       height="0.28125"
       x="98.864578"
       y="92.359375" /></g></svg>
