<?xml version="1.0" encoding="UTF-8" standalone="no"?>
<!-- Created with Inkscape (http://www.inkscape.org/) -->

<svg
   width="125.83334mm"
   height="143.49998mm"
   viewBox="0 0 125.83334 143.49998"
   version="1.1"
   id="svg1"
   inkscape:export-filename="eagle-mx.svg"
   inkscape:export-xdpi="96"
   inkscape:export-ydpi="96"
   xml:space="preserve"
   xmlns:inkscape="http://www.inkscape.org/namespaces/inkscape"
   xmlns:sodipodi="http://sodipodi.sourceforge.net/DTD/sodipodi-0.dtd"
   xmlns="http://www.w3.org/2000/svg"
   xmlns:svg="http://www.w3.org/2000/svg"><sodipodi:namedview
     id="namedview1"
     pagecolor="#ffffff"
     bordercolor="#000000"
     borderopacity="0.25"
     inkscape:showpageshadow="2"
     inkscape:pageopacity="0.0"
     inkscape:pagecheckerboard="0"
     inkscape:deskcolor="#d1d1d1"
     inkscape:document-units="mm"
     showgrid="false" /><defs
     id="defs1" /><g
     inkscape:label="Capa 1"
     inkscape:groupmode="layer"
     id="layer1"
     transform="translate(-43.166669,-42.833331)"><path
       style="opacity:1;fill:#fc540d;fill-opacity:0.507353;stroke:none;stroke-width:1;stroke-dasharray:none;stroke-opacity:1;paint-order:stroke markers fill"
       d="m 67,101.66667 0.833332,13 1,9.66666 0.833335,10.83333 2.166665,10.33334 5,9.5 7.666667,9.83333 8.666665,7.16667 8.333336,2.5 10.66667,-2.66667 8,-7.5 L 128,154.5 133.16667,144.16666 135.83333,132.16667 137.16667,122.5 138,113.33333 137.16667,100.66667 126.16666,91.666665 111.5,89.166664 92.333333,88.833332 l -9.666666,1.166667 -6.333334,2.333334 -3.500001,2.666666 z"
       id="path22" /><path
       style="opacity:1;fill:#000000;fill-opacity:0.968137;stroke:none;stroke-width:1;stroke-dasharray:none;stroke-opacity:1;paint-order:stroke markers fill"
       d="M 66.666665,101.16666 60.666666,102 l -3.666667,1.33333 -2.166668,6.33334 -1.333333,2.66666 0.333335,2.5 -0.333335,3.5 L 54.166666,123 59,144.16666 64.5,157.5 71.166666,169.33333 77.166665,176 l 6.333334,4.5 5.666665,2.83333 6.500001,2.33333 7.166665,0.66667 L 112.5,185 l 7.33333,-2.33334 8,-5.33333 L 134.16666,170 139.5,162.16667 142,157 l 3.83333,-12.33334 2.5,-10.5 0.83334,-8.16666 1,-8.5 -1,-8.16667 -1.33334,-6 -3.33333,-1.66666 -7.16667,-1 1,12.16666 -0.66667,9 -0.49999,3.83334 -0.83334,6.33333 -3,12 -5.16666,11 -7.33334,8.83333 -8.5,8.5 L 102.5,175 l -9.333336,-2.5 -8.999997,-7.66667 -8,-10.66666 -5.000001,-10.00001 -2.000001,-9.33333 L 68.5,124.66666 67.333333,114.33333 Z"
       id="path23" /><path
       style="opacity:1;fill:#e5655d;fill-opacity:1;stroke:none;stroke-width:1;stroke-dasharray:none;stroke-opacity:1;paint-order:stroke markers fill"
       d="m 89.666666,149.25 h 1.25 l 3.666667,0.58333 3.249999,-1.66667 1.25,0.16667 1.999998,1.25 L 102,149.5 l 2.83333,-1.16667 h 1.5 l 2.91667,1.25 5.08333,0.25 -5.58333,0.33334 -4.08333,0.0833 -1.75,0.75 -1.66667,0.0833 -0.75,-0.33333 -2.916667,-0.41667 -2.250001,0.0833 z"
       id="path24" /><path
       style="opacity:1;fill:#e5655d;fill-opacity:1;stroke:none;stroke-width:1;stroke-dasharray:none;stroke-opacity:1;paint-order:stroke markers fill"
       d="M 113.83333,150.33333 110.25,150.75 l -1.58334,1.33333 -1.33333,2.58333 L 106,155.08333 h -7.333333 l -1.333334,-0.33333 -1.916668,-3 -0.916667,-0.58334 -4.583332,-0.99999 10.166664,1.08333 3.16667,-0.0833 2.08333,-0.33333 z"
       id="path25" /><path
       style="opacity:1;fill:#e4571c;fill-opacity:0.901961;stroke:none;stroke-width:1;stroke-dasharray:none;stroke-opacity:1;paint-order:stroke markers fill"
       d="m 109.33333,118.5 -1.83333,4.16667 0.25,6.83333 1,3.66667 2.16667,2.66666 L 112.5,138 l -0.16667,1.58333 -1.16666,1.33334 -2.50001,1.25 -2.74999,0.33333 v -0.75 l 0.91666,-0.58333 1.5,-0.91667 v -0.66667 l -0.58333,-0.25 -2.25,0.58334 -0.58334,0.66666 -1.33333,0.41667 -0.25,1.41667 -2.41667,0.16666 L 100.25,141.5 l -0.750002,-0.83334 -1.333333,-0.49999 -1.333333,-0.5 -1.5,0.16666 -0.499999,0.83333 V 141.5 L 96.583332,142 97.5,142.25 97.25,142.83333 93.416667,141.5 92.583332,139.83333 92.083333,137.5 l 1.833333,-2.58333 2.25,-2.83334 1.833333,-3.58333 1.25,-4.66667 V 120.25 l -1.166667,-2.91667 z"
       id="path26" /><path
       style="opacity:1;fill:#fbe7df;fill-opacity:0.335784;stroke:none;stroke-width:1;stroke-dasharray:none;stroke-opacity:1;paint-order:stroke markers fill"
       d="M 79.083333,122.5 81.75,120.33333 84.999998,119.5 l 3.166668,0.41667 2.916667,0.91666 2.083331,1.33333 0.583335,0.83334 -0.416666,0.66667 -2.749999,0.74999 -2.000002,0.83334 -4,0.0833 -3.249998,-1.08333 z"
       id="path27" /><path
       style="opacity:1;fill:#fbe7df;fill-opacity:0.571078;stroke:none;stroke-width:1;stroke-dasharray:none;stroke-opacity:1;paint-order:stroke markers fill"
       d="m 112.25,123.16666 1.91666,-1.58333 2.5,-0.5 3.16667,-0.41667 2.91667,0.25 1.75,0.66667 2.33333,1.41667 0.25,0.33333 -1.91666,1.66667 -2.5,0.58333 -3.25001,0.5 L 117,125.75 l -2.41667,-0.83334 z"
       id="path28" /><ellipse
       style="opacity:1;fill:#9e72ed;fill-opacity:1;stroke:none;stroke-width:1;stroke-dasharray:none;stroke-opacity:1;paint-order:stroke markers fill"
       id="path29"
       cx="86.875"
       cy="122.625"
       rx="3.2916665"
       ry="2.5416667" /><ellipse
       style="opacity:1;fill:#9e72ed;fill-opacity:1;stroke:none;stroke-width:1;stroke-dasharray:none;stroke-opacity:1;paint-order:stroke markers fill"
       id="path30"
       cx="119.91666"
       cy="123.41666"
       rx="3.3333333"
       ry="2.5" /><path
       style="opacity:1;fill:#000000;fill-opacity:1;stroke:none;stroke-width:1;stroke-dasharray:none;stroke-opacity:1;paint-order:stroke markers fill"
       d="m 72.416666,116.16667 3,-0.25 2.666666,-2.08334 3.083333,-1.5 L 83.249999,112 h 2.999999 l 2.500001,0.5 2.416667,0.66667 1.499999,0.41666 2.833333,-1 L 97.083331,110.75 89.25,108.41667 85.333334,108.08333 80.25,108.75 l -2.5,1.41666 -1.750002,1.33334 -1.749999,2.41666 z"
       id="path31" /><path
       style="opacity:1;fill:#000000;fill-opacity:1;stroke:none;stroke-width:1;stroke-dasharray:none;stroke-opacity:1;paint-order:stroke markers fill"
       d="m 108.08333,111.41666 1.33334,2.16667 1.66666,0.25 L 113,113.5 l 2,-0.83334 3.25,-0.33333 3.91666,0.16667 3.33334,0.83333 2.91666,1.66667 1.75,1.41667 L 132,117.25 l 1.41667,0.33333 -1.66667,-2.5 -2,-2.16667 -3.08333,-2.58333 L 124,108.75 l -5.41667,-0.0833 h -3.91666 l -1.25,0.33334 z"
       id="path32" /><ellipse
       style="opacity:1;fill:#000000;fill-opacity:1;stroke:none;stroke-width:1;stroke-dasharray:none;stroke-opacity:1;paint-order:stroke markers fill"
       id="path33"
       cx="124.29167"
       cy="139.16667"
       rx="1.0416666"
       ry="0.83333331" /><ellipse
       style="opacity:1;fill:#000000;fill-opacity:1;stroke:none;stroke-width:1;stroke-dasharray:none;stroke-opacity:1;paint-order:stroke markers fill"
       id="path34"
       cx="88.708336"
       cy="155.79167"
       rx="0.95833331"
       ry="0.79166669" /><path
       style="opacity:1;fill:#ffcd29;fill-opacity:1;stroke:none;stroke-width:1;stroke-dasharray:none;stroke-opacity:1;paint-order:stroke markers fill"
       d="m 44.5,88.833332 124.5,0.166666 -0.83334,-6.333331 -2.5,-5.833335 -6.33333,-7.833333 L 146.5,55.499999 128,46 115.83333,43.333333 91.499998,42.833332 l -11.5,3.833333 -9.333333,5.833335 -13.666666,9.166667 -6.666666,7.166665 -4.333333,7 -1.833335,8.500001 -0.999998,4 v 0.666665 z"
       id="path35" /></g></svg>
